HIERARCHY
ROOT Hips
{
	OFFSET -3.958830 18.904000 13.208200
	CHANNELS 6 Xposition Yposition Zposition Zrotation Yrotation Xrotation 
	JOINT LHipJoint
	{
		OFFSET 0.000000 0.000000 0.000000
		CHANNELS 3 Zrotation Yrotation Xrotation
		JOINT LeftUpLeg
		{
			OFFSET 1.800000 -1.400000 0.085000
			CHANNELS 3 Zrotation Yrotation Xrotation
			JOINT LeftLeg
			{
				OFFSET 2.215000 -6.000000 0.000000
				CHANNELS 3 Zrotation Yrotation Xrotation
				JOINT LeftFoot
				{
					OFFSET 2.500000 -6.900000 0.000000
					CHANNELS 3 Zrotation Yrotation Xrotation
					JOINT LeftToeBase
					{
						OFFSET 0.200000 -0.500000 1.950000
						CHANNELS 3 Zrotation Yrotation Xrotation
						End Site
						{
							OFFSET 0.000000 0.000000 0.000000
						}
					}
				}
			}
		}
	}
	JOINT RHipJoint
	{
		OFFSET 0.000000 0.000000 0.000000
		CHANNELS 3 Zrotation Yrotation Xrotation
		JOINT RightUpLeg
		{
			OFFSET -1.800000 -1.400000 0.085000
			CHANNELS 3 Zrotation Yrotation Xrotation
			JOINT RightLeg
			{
				OFFSET -2.215000 -6.000000 0.000000
				CHANNELS 3 Zrotation Yrotation Xrotation
				JOINT RightFoot
				{
					OFFSET -2.500000 -6.900000 0.000000
					CHANNELS 3 Zrotation Yrotation Xrotation
					JOINT RightToeBase
					{
						OFFSET -0.200000 -0.500000 1.950000
						CHANNELS 3 Zrotation Yrotation Xrotation
						End Site
						{
							OFFSET 0.000000 0.000000 0.000000
						}
					}
				}
			}
		}
	}
	JOINT LowerBack
	{
		OFFSET 0.000000 0.000000 0.000000
		CHANNELS 3 Zrotation Yrotation Xrotation
		JOINT Spine
		{
			OFFSET -0.087000 1.940000 -0.288900
			CHANNELS 3 Zrotation Yrotation Xrotation
			JOINT Spine1
			{
				OFFSET 0.000000 1.950000 0.060000
				CHANNELS 3 Zrotation Yrotation Xrotation
				JOINT Neck
				{
					OFFSET 0.000000 0.000000 0.000000
					CHANNELS 3 Zrotation Yrotation Xrotation
					JOINT Neck1
					{
						OFFSET 0.000000 1.600000 0.340000
						CHANNELS 3 Zrotation Yrotation Xrotation
						JOINT Head
						{
							OFFSET 0.000000 1.667000 -0.240000
							CHANNELS 3 Zrotation Yrotation Xrotation
							End Site
							{
								OFFSET 0.000000 0.000000 0.000000
							}
						}
					}
				}
				JOINT LeftShoulder
				{
					OFFSET 0.000000 0.000000 0.000000
					CHANNELS 3 Zrotation Yrotation Xrotation
					JOINT LeftArm
					{
						OFFSET 2.700000 1.550000 -0.730000
						CHANNELS 3 Zrotation Yrotation Xrotation
						JOINT LeftForeArm
						{
							OFFSET 5.450000 0.000000 0.000000
							CHANNELS 3 Zrotation Yrotation Xrotation
							JOINT LeftHand
							{
								OFFSET 3.450000 0.000000 0.000000
								CHANNELS 3 Zrotation Yrotation Xrotation
								JOINT LeftHandIndex1
								{
									OFFSET 0.750000 0.000000 0.000000
									CHANNELS 3 Zrotation Yrotation Xrotation
									End Site
									{
										OFFSET 0.000000 0.000000 0.000000
									}
								}
							}
						}
					}
				}
				JOINT RightShoulder
				{
					OFFSET 0.000000 0.000000 0.000000
					CHANNELS 3 Zrotation Yrotation Xrotation
					JOINT RightArm
					{
						OFFSET -2.700000 1.550000 -0.730000
						CHANNELS 3 Zrotation Yrotation Xrotation
						JOINT RightForeArm
						{
							OFFSET -5.450000 0.000000 0.000000
							CHANNELS 3 Zrotation Yrotation Xrotation
							JOINT RightHand
							{
								OFFSET -3.450000 0.000000 0.000000
								CHANNELS 3 Zrotation Yrotation Xrotation
								JOINT RightHandIndex1
								{
									OFFSET -0.750000 0.000000 0.000000
									CHANNELS 3 Zrotation Yrotation Xrotation
									End Site
									{
										OFFSET 0.000000 0.000000 0.000000
									}
								}
							}
						}
					}
				}
			}
		}
	}
}
MOTION
Frames: 8
Frame Time: 0.016667
-2.082590 16.766590 -0.580560 0.123033 14.890212 3.218521 -15.121623 11.842949 4.750244 1.095316 -7.991705 -41.700464 -3.038678 4.853285 23.901759 -0.839723 3.939233 3.323635 0.457130 0.004040 0.210430 18.454893 -10.840168 2.623886 0.490666 -2.246091 3.826639 3.117395 -6.334519 19.234212 -0.598796 -5.038151 2.944004 0.155350 0.470180 0.115240 -4.177373 -1.024482 -8.278068 9.437365 1.070634 20.357825 -11.882551 5.795775 5.872684 1.240043 -8.226594 -10.412990 -19.036301 -0.277011 34.322144 4.895100 -9.266050 -10.611220 -11.955732 -21.858045 -0.392717 -1.813512 -32.349202 -1.257181 21.112523 -55.843371 -8.538009 -3.555742 2.699375 0.611980 0.124320 -0.199130 0.351290 8.590245 28.689339 8.552075 -8.742434 11.836099 -6.978954 -13.239172 62.495066 -4.153770 1.685162 -1.550060 -0.384090 0.454790 -0.001350 -0.169180 
-2.168120 16.748730 -0.609220 0.047901 15.998477 1.353079 -15.117773 11.650312 4.892131 2.161622 -8.574983 -42.828071 -2.935434 5.557404 29.551622 -0.739718 4.826231 2.951781 0.516600 0.068350 0.262600 18.491867 -10.777873 2.697024 1.850333 -2.686535 5.328390 2.694653 -6.400595 19.858450 -0.697050 -5.175383 2.866910 0.188120 0.401150 0.120860 -4.254455 -0.816088 -8.410008 9.133962 0.196439 24.269987 -12.505178 5.712247 5.580952 1.190130 -8.410358 -10.502110 -18.932477 -0.274869 33.546880 5.365910 -8.789220 -13.329800 -12.620167 -22.733404 -0.880219 2.286300 -30.993433 -3.030330 17.357142 -54.361348 -6.287177 -3.534067 2.765767 0.658920 0.073160 -0.151730 0.337750 9.341606 29.639127 9.043834 -10.768391 10.286456 -7.402627 -9.395431 60.938265 -2.164372 1.721754 -1.622976 -0.365840 0.438410 -0.020530 -0.191470 
-2.255230 16.755180 -0.624120 0.066099 16.888659 -0.151404 -15.097606 11.385952 5.004560 3.721756 -9.029350 -43.575393 -3.935458 6.748667 34.949167 -0.640435 5.955673 2.511857 0.593350 0.157740 0.315540 18.562118 -10.740442 2.706135 3.018480 -2.860912 5.989200 2.408490 -6.509638 21.226606 -0.789548 -5.319382 2.781300 0.258810 0.375400 0.126610 -4.385677 -0.457465 -8.475540 8.913089 -0.414014 26.974202 -13.241184 5.923793 6.787988 0.882701 -8.611203 -10.276973 -18.721579 -0.621308 32.450964 6.297300 -8.860160 -16.751210 -12.008644 -23.352594 -1.484015 3.085272 -31.119555 -4.176457 15.982526 -52.291488 -5.632178 -3.521897 2.744311 0.704430 0.039160 -0.111610 0.339240 9.198576 30.208396 9.353030 -9.483630 9.807933 -8.521950 -9.647212 60.127344 -2.735781 1.665887 -1.624754 -0.367740 0.480560 -0.029780 -0.202930 
-2.331770 16.814450 -0.620170 0.121882 17.293472 -2.297012 -15.046487 11.362642 4.891567 4.986219 -8.833924 -41.809086 -4.880307 8.031452 39.430744 -0.546727 6.964877 2.104913 0.637740 0.201210 0.367290 18.602119 -10.839706 2.746201 3.415411 -2.774323 6.687463 2.313805 -6.798752 23.270320 -0.898224 -5.503661 2.684236 0.286300 0.307720 0.118830 -4.531064 -0.115540 -8.492901 8.603623 -0.990418 30.379121 -13.989526 6.300361 8.088085 0.917687 -9.094739 -10.806939 -19.690188 -0.401648 32.812234 7.553840 -8.676250 -21.174900 -12.408069 -24.519244 -1.300273 1.484654 -29.778575 -5.854251 19.550527 -51.910018 -7.904601 -3.453734 2.634785 0.807980 -0.036660 -0.044260 0.308530 9.571567 31.755218 10.108249 -6.794902 9.148918 -10.609786 -11.692894 60.773103 -4.485162 1.599008 -1.570905 -0.379260 0.513190 -0.019830 -0.237660 
-2.405840 16.897050 -0.596090 0.521736 18.200790 -3.873767 -15.042648 11.466349 4.822866 5.744151 -8.748805 -39.689011 -6.721493 9.456000 41.911540 -0.402863 7.666513 1.819977 0.675300 0.236830 0.418580 18.573475 -10.894328 2.729344 3.357838 -2.167486 6.006332 2.824442 -7.303210 26.446883 -0.993954 -5.678315 2.590638 0.277360 0.212360 0.119850 -4.529509 -0.073056 -8.520074 7.196718 -1.311243 33.385389 -13.823538 6.313116 8.677259 0.979113 -9.559449 -11.686715 -21.149496 0.141384 34.077108 8.887870 -8.397520 -25.024300 -13.596545 -25.575891 -0.487965 -1.730336 -27.524784 -7.461314 23.881933 -51.930614 -10.720885 -3.347711 2.571458 0.895120 -0.131050 0.040740 0.283480 10.885651 33.451159 10.841747 -2.479772 9.560509 -12.941599 -14.260599 62.769560 -6.919583 1.566232 -1.493738 -0.353040 0.499690 -0.034910 -0.258210 
-2.480470 16.972410 -0.549240 1.468589 18.799867 -3.937631 -15.092818 11.440381 4.991633 6.237432 -9.194544 -39.575633 -9.110183 11.394323 44.626117 -0.162810 8.533634 1.524717 0.693780 0.278350 0.419160 18.526994 -10.820198 2.612113 2.770379 -1.363485 4.738204 3.476642 -7.815032 29.534580 -1.044370 -5.868699 2.527903 0.277100 0.185580 0.106460 -4.397580 -0.203358 -8.595669 4.809469 -0.767452 34.328416 -13.035091 6.492767 9.316282 0.721967 -10.004746 -12.394740 -22.446265 0.831547 34.821242 10.282160 -8.392510 -26.507540 -14.957966 -25.761835 0.561015 -6.788221 -25.132810 -8.851950 30.789798 -52.941836 -15.224908 -3.265101 2.487654 0.906830 -0.172260 0.077620 0.294620 12.996589 34.433917 11.421521 3.209689 10.592359 -14.867847 -16.781391 66.068862 -10.078841 1.535332 -1.404707 -0.327400 0.506340 -0.060170 -0.238430 
-2.538930 17.029880 -0.491430 1.018159 20.297767 -4.122447 -15.160380 11.504860 5.062563 6.914750 -9.274100 -39.435162 -9.532563 12.718750 47.831836 0.026565 9.318408 1.266361 0.649480 0.225080 0.417750 18.466868 -10.641969 2.599685 3.403593 -0.104300 2.147595 5.288280 -9.022309 34.219415 -1.126102 -6.270246 2.389294 0.229110 0.167290 0.088680 -4.241372 -0.502823 -8.702533 3.875773 -0.831105 35.091409 -12.140036 6.038945 8.707938 1.019784 -9.998015 -12.944695 -23.074638 1.772494 36.522398 10.349050 -7.889640 -27.098030 -17.824619 -25.528043 1.797719 -12.364878 -21.873658 -10.064174 34.328027 -57.368135 -19.331348 -3.203828 2.393086 0.941330 -0.199320 0.094160 0.268590 15.506265 34.688514 11.638999 9.048280 12.493334 -15.741686 -15.076766 68.838159 -10.578341 1.534517 -1.302914 -0.340550 0.510220 -0.046590 -0.251580 
-2.590000 17.049640 -0.412200 0.095345 21.703451 -3.677773 -15.178838 11.578278 4.942366 7.662384 -8.606017 -38.578721 -9.499240 13.499188 49.070225 0.156890 9.658301 1.158712 0.643610 0.216280 0.408180 18.451834 -10.484035 2.689736 3.984820 1.801107 -1.642675 7.925437 -10.888880 39.746644 -1.280210 -6.964913 2.155672 0.197140 0.156780 0.106100 -4.216390 -0.660217 -8.773201 4.460023 -1.042004 34.130110 -11.922236 5.501657 8.443272 1.205492 -10.070713 -13.243951 -23.665137 2.486605 37.645253 10.736820 -7.939800 -26.824370 -20.264619 -24.441746 2.830075 -18.987996 -19.236487 -11.001955 37.161694 -61.652053 -23.546935 -3.143448 2.347683 0.934040 -0.209970 0.109010 0.275110 17.685007 33.859254 11.927480 16.882776 13.817362 -16.332412 -12.967094 73.412240 -11.731190 1.530091 -1.260110 -0.307830 0.478300 -0.058040 -0.235610 
